<svg xmlns="http://www.w3.org/2000/svg" width="33" height="33" viewBox="0 0 33 33" fill="none"><path d="M19.25 19.25H5.8479C5.44169 19.2498 5.03942 19.3296 4.66408 19.485C4.28873 19.6403 3.94767 19.868 3.66037 20.1552C3.37307 20.4424 3.14517 20.7833 2.98968 21.1586C2.83418 21.5339 2.75415 21.9361 2.75415 22.3423V23.1371C2.75415 24.3636 3.19415 25.5516 3.99165 26.4852C6.14353 29.007 9.42428 30.2527 13.75 30.2527C14.7332 30.2527 15.6613 30.1867 16.5358 30.0588C16.512 29.8944 16.5001 29.7286 16.5 29.5625V27.9771C15.6558 28.1187 14.74 28.1888 13.75 28.1888C9.98528 28.1888 7.28203 27.1631 5.55915 25.146C5.08007 24.5857 4.81676 23.8729 4.81665 23.1357V22.3423C4.81665 21.7731 5.27865 21.3111 5.8479 21.3111H16.786C17.0073 20.806 17.3465 20.3614 17.7753 20.0147C18.2041 19.668 18.7098 19.4293 19.25 19.3187V19.25ZM13.75 2.75684C14.6529 2.75684 15.5469 2.93466 16.381 3.28016C17.2151 3.62566 17.973 4.13207 18.6114 4.77048C19.2498 5.40888 19.7562 6.16677 20.1017 7.00089C20.4472 7.835 20.625 8.729 20.625 9.63184C20.625 10.5347 20.4472 11.4287 20.1017 12.2628C19.7562 13.0969 19.2498 13.8548 18.6114 14.4932C17.973 15.1316 17.2151 15.638 16.381 15.9835C15.5469 16.329 14.6529 16.5068 13.75 16.5068C11.9267 16.5068 10.178 15.7825 8.88867 14.4932C7.59935 13.2039 6.87503 11.4552 6.87503 9.63184C6.87503 7.80847 7.59935 6.05979 8.88867 4.77048C10.178 3.48116 11.9267 2.75684 13.75 2.75684ZM13.75 4.81934C13.118 4.81934 12.4922 4.94381 11.9084 5.18567C11.3245 5.42752 10.794 5.782 10.3471 6.22888C9.90019 6.67577 9.54571 7.20629 9.30386 7.79017C9.06201 8.37405 8.93753 8.99985 8.93753 9.63184C8.93753 10.2638 9.06201 10.8896 9.30386 11.4735C9.54571 12.0574 9.90019 12.5879 10.3471 13.0348C10.794 13.4817 11.3245 13.8362 11.9084 14.078C12.4922 14.3199 13.118 14.4443 13.75 14.4443C15.0264 14.4443 16.2505 13.9373 17.153 13.0348C18.0555 12.1323 18.5625 10.9082 18.5625 9.63184C18.5625 8.35548 18.0555 7.1314 17.153 6.22888C16.2505 5.32637 15.0264 4.81934 13.75 4.81934ZM20.625 20.625H19.9375C19.3905 20.625 18.8659 20.8423 18.4791 21.2291C18.0923 21.6158 17.875 22.1405 17.875 22.6875V29.5625C17.875 30.1095 18.0923 30.6341 18.4791 31.0209C18.8659 31.4077 19.3905 31.625 19.9375 31.625H28.1875C28.7345 31.625 29.2591 31.4077 29.6459 31.0209C30.0327 30.6341 30.25 30.1095 30.25 29.5625V22.6875C30.25 22.1405 30.0327 21.6158 29.6459 21.2291C29.2591 20.8423 28.7345 20.625 28.1875 20.625H27.5V19.25C27.5 18.3383 27.1379 17.4639 26.4932 16.8193C25.8486 16.1746 24.9742 15.8125 24.0625 15.8125C23.1508 15.8125 22.2765 16.1746 21.6318 16.8193C20.9872 17.4639 20.625 18.3383 20.625 19.25V20.625ZM22.6875 19.25C22.6875 18.8853 22.8324 18.5356 23.0903 18.2777C23.3481 18.0198 23.6979 17.875 24.0625 17.875C24.4272 17.875 24.7769 18.0198 25.0348 18.2777C25.2927 18.5356 25.4375 18.8853 25.4375 19.25V20.625H22.6875V19.25ZM25.4375 26.125C25.4375 26.4896 25.2927 26.8394 25.0348 27.0972C24.7769 27.3551 24.4272 27.5 24.0625 27.5C23.6979 27.5 23.3481 27.3551 23.0903 27.0972C22.8324 26.8394 22.6875 26.4896 22.6875 26.125C22.6875 25.7603 22.8324 25.4105 23.0903 25.1527C23.3481 24.8948 23.6979 24.75 24.0625 24.75C24.4272 24.75 24.7769 24.8948 25.0348 25.1527C25.2927 25.4105 25.4375 25.7603 25.4375 26.125Z" fill="#9C27B0"></path></svg>