<svg xmlns="http://www.w3.org/2000/svg" width="30" height="30" viewBox="0 0 30 30" fill="none"><path d="M25 13.75C25 11.0978 23.9464 8.5543 22.0711 6.67893C20.1957 4.80357 17.6522 3.75 15 3.75C12.3478 3.75 9.8043 4.80357 7.92893 6.67893C6.05357 8.5543 5 11.0978 5 13.75" stroke="#9C27B0" stroke-width="1.5" stroke-linecap="round" stroke-linejoin="round"></path><path d="M2.5 19.2974V16.9524C2.50008 16.3949 2.6865 15.8535 3.02963 15.4141C3.37276 14.9747 3.8529 14.6626 4.39375 14.5274L6.56875 13.9824C6.67927 13.9549 6.79461 13.9529 6.90601 13.9766C7.01742 14.0003 7.12196 14.0491 7.21172 14.1192C7.30147 14.1893 7.37408 14.2789 7.42403 14.3813C7.47398 14.4836 7.49996 14.596 7.5 14.7099V21.5387C7.5002 21.6528 7.47434 21.7655 7.4244 21.8681C7.37446 21.9708 7.30176 22.0606 7.21183 22.1309C7.12189 22.2012 7.01711 22.25 6.90545 22.2737C6.79379 22.2974 6.67821 22.2952 6.5675 22.2674L4.3925 21.7237C3.85188 21.5883 3.37202 21.2761 3.02914 20.8367C2.68626 20.3973 2.50001 19.856 2.5 19.2987V19.2974Z" stroke="#9C27B0" stroke-width="1.5"></path><path d="M27.5 19.2974V16.9524C27.4999 16.3949 27.3135 15.8535 26.9704 15.4141C26.6272 14.9747 26.1471 14.6626 25.6063 14.5274L23.4313 13.9824C23.3207 13.9549 23.2054 13.9529 23.094 13.9766C22.9826 14.0003 22.878 14.0491 22.7883 14.1192C22.6985 14.1893 22.6259 14.2789 22.576 14.3813C22.526 14.4836 22.5 14.596 22.5 14.7099V21.5387C22.4999 21.6527 22.5257 21.7652 22.5756 21.8677C22.6254 21.9703 22.698 22.0601 22.7878 22.1303C22.8776 22.2006 22.9822 22.2494 23.0937 22.2732C23.2052 22.297 23.3206 22.295 23.4313 22.2674L25.6063 21.7237C26.1471 21.5885 26.6272 21.2764 26.9704 20.837C27.3135 20.3976 27.4999 19.8562 27.5 19.2987V19.2974Z" stroke="#9C27B0" stroke-width="1.5"></path><path d="M25 22.5V23.125C25 23.788 24.7366 24.4239 24.2678 24.8928C23.7989 25.3616 23.163 25.625 22.5 25.625H18.125" stroke="#9C27B0" stroke-width="1.5"></path><path d="M16.875 27.5H13.125C12.6277 27.5 12.1508 27.3025 11.7992 26.9508C11.4475 26.5992 11.25 26.1223 11.25 25.625C11.25 25.1277 11.4475 24.6508 11.7992 24.2992C12.1508 23.9475 12.6277 23.75 13.125 23.75H16.875C17.3723 23.75 17.8492 23.9475 18.2008 24.2992C18.5525 24.6508 18.75 25.1277 18.75 25.625C18.75 26.1223 18.5525 26.5992 18.2008 26.9508C17.8492 27.3025 17.3723 27.5 16.875 27.5Z" stroke="#9C27B0" stroke-width="1.5"></path></svg>